<svg width="20" height="20" viewBox="0 0 20 20" fill="none" xmlns="http://www.w3.org/2000/svg">
<path d="M17.5 4.16699C17.5 5.5477 14.1421 6.66699 10 6.66699C5.85786 6.66699 2.5 5.5477 2.5 4.16699M17.5 4.16699C17.5 2.78628 14.1421 1.66699 10 1.66699C5.85786 1.66699 2.5 2.78628 2.5 4.16699M17.5 4.16699V7.75033M2.5 4.16699L2.5 15.8337C2.49947 16.3742 3.0246 16.9003 3.99667 17.333C4.96873 17.7657 6.33535 18.0817 7.89167 18.2337M2.5 10.0003C2.4988 10.4663 2.88829 10.9231 3.62453 11.3192C4.36076 11.7153 5.41444 12.0349 6.66667 12.242M10 10.0003V13.3337M10 13.3337H13.3333M10 13.3337L11.7417 11.592C12.4667 10.867 13.475 10.417 14.5833 10.417C15.5779 10.417 16.5317 10.8121 17.235 11.5153C17.9382 12.2186 18.3333 13.1724 18.3333 14.167C18.3333 15.0415 18.0582 15.8938 17.5468 16.6033C17.0355 17.3127 16.3139 17.8433 15.4843 18.1198C14.6546 18.3964 13.759 18.4049 12.9243 18.1441C12.0896 17.8834 11.358 17.3666 10.8333 16.667" stroke="#24A1DD" stroke-linecap="round" stroke-linejoin="round"/>
</svg>
