<svg width="20" height="20" viewBox="0 0 20 20" fill="none" xmlns="http://www.w3.org/2000/svg">
<path d="M1.7181 10.2898C1.64865 10.1027 1.64865 9.89691 1.7181 9.70981C2.39452 8.06969 3.5427 6.66735 5.01708 5.68056C6.49146 4.69378 8.22564 4.16699 9.99977 4.16699C11.7739 4.16699 13.5081 4.69378 14.9825 5.68056C16.4568 6.66735 17.605 8.06969 18.2814 9.70981C18.3509 9.89691 18.3509 10.1027 18.2814 10.2898C17.605 11.9299 16.4568 13.3323 14.9825 14.3191C13.5081 15.3058 11.7739 15.8326 9.99977 15.8326C8.22564 15.8326 6.49146 15.3058 5.01708 14.3191C3.5427 13.3323 2.39452 11.9299 1.7181 10.2898Z" stroke="#24A1DD" stroke-width="2" stroke-linecap="round" stroke-linejoin="round"/>
<path d="M9.99976 12.4997C11.3805 12.4997 12.4998 11.3804 12.4998 9.99972C12.4998 8.619 11.3805 7.49972 9.99976 7.49972C8.61904 7.49972 7.49976 8.619 7.49976 9.99972C7.49976 11.3804 8.61904 12.4997 9.99976 12.4997Z" stroke="#24A1DD" stroke-width="2" stroke-linecap="round" stroke-linejoin="round"/>
</svg>
