<svg width="96" height="82" viewBox="0 0 96 82" fill="none" xmlns="http://www.w3.org/2000/svg">
<g clip-path="url(#clip0_353_11325)">
<ellipse opacity="0.4" cx="58.111" cy="21.5073" rx="7.18524" ry="7.18405" fill="#BCE9FF" fill-opacity="0.6"/>
<ellipse opacity="0.4" cx="50.3292" cy="8.33624" rx="4.79016" ry="4.78936" fill="#BCE9FF" fill-opacity="0.6"/>
<ellipse opacity="0.4" cx="67.6903" cy="33.4802" rx="4.79016" ry="4.78936" transform="rotate(-180 67.6903 33.4802)" fill="#BCE9FF" fill-opacity="0.6"/>
<ellipse opacity="0.4" cx="43.1434" cy="-0.0446959" rx="3.59262" ry="3.59202" fill="#BCE9FF" fill-opacity="0.6"/>
<ellipse opacity="0.4" cx="74.8761" cy="41.8621" rx="3.59262" ry="3.59202" transform="rotate(-180 74.8761 41.8621)" fill="#BCE9FF" fill-opacity="0.6"/>
<ellipse opacity="0.4" cx="33.5603" cy="-0.643366" rx="2.99385" ry="2.99335" fill="#BCE9FF" fill-opacity="0.6"/>
<ellipse opacity="0.4" cx="84.4593" cy="42.4608" rx="2.99385" ry="2.99335" transform="rotate(-180 84.4593 42.4608)" fill="#BCE9FF" fill-opacity="0.6"/>
<ellipse opacity="0.4" cx="26.3767" cy="5.34296" rx="2.99385" ry="2.99335" fill="#BCE9FF" fill-opacity="0.6"/>
<ellipse opacity="0.4" cx="91.6429" cy="36.4744" rx="2.99385" ry="2.99335" transform="rotate(-180 91.6429 36.4744)" fill="#BCE9FF" fill-opacity="0.6"/>
<ellipse opacity="0.4" cx="21.2871" cy="11.0309" rx="2.09569" ry="2.09535" fill="#BCE9FF" fill-opacity="0.6"/>
<ellipse opacity="0.4" cx="96.7324" cy="30.7865" rx="2.09569" ry="2.09535" transform="rotate(-180 96.7324 30.7865)" fill="#BCE9FF" fill-opacity="0.6"/>
</g>
<defs>
<clipPath id="clip0_353_11325">
<rect width="96" height="82" fill="white"/>
</clipPath>
</defs>
</svg>
