<svg width="30" height="19" viewBox="0 0 30 19" fill="none" xmlns="http://www.w3.org/2000/svg">
<ellipse cx="14.5749" cy="9.45597" rx="2.69075" ry="2.70169" fill="#24A1DD"/>
<ellipse cx="11.6599" cy="4.50279" rx="1.79383" ry="1.80113" fill="#24A1DD"/>
<ellipse cx="18.1626" cy="13.9588" rx="1.79383" ry="1.80113" transform="rotate(-180 18.1626 13.9588)" fill="#24A1DD"/>
<ellipse cx="8.96915" cy="1.35085" rx="1.34538" ry="1.35085" fill="#24A1DD"/>
<ellipse cx="20.8535" cy="17.1107" rx="1.34538" ry="1.35085" transform="rotate(-180 20.8535 17.1107)" fill="#24A1DD"/>
<ellipse cx="5.38149" cy="1.12571" rx="1.12115" ry="1.12571" fill="#24A1DD"/>
<ellipse cx="24.4412" cy="17.3358" rx="1.12115" ry="1.12571" transform="rotate(-180 24.4412 17.3358)" fill="#24A1DD"/>
<ellipse cx="2.69076" cy="3.37717" rx="1.12115" ry="1.12571" fill="#24A1DD"/>
<ellipse cx="27.1317" cy="15.0844" rx="1.12115" ry="1.12571" transform="rotate(-180 27.1317 15.0844)" fill="#24A1DD"/>
<ellipse cx="0.784802" cy="5.5159" rx="0.784802" ry="0.787994" fill="#24A1DD"/>
<ellipse cx="29.0377" cy="12.9456" rx="0.784802" ry="0.787994" transform="rotate(-180 29.0377 12.9456)" fill="#24A1DD"/>
</svg>
